HIERARCHY
ROOT Hips
{
	OFFSET 0.00000 0.00000 0.00000
	CHANNELS 6 Xposition Yposition Zposition Zrotation Yrotation Xrotation 
	JOINT LHipJoint
	{
		OFFSET 0 0 0
		CHANNELS 3 Zrotation Yrotation Xrotation
		JOINT LeftHip
		{
			OFFSET 1.58161 -1.81893 0.78828
			CHANNELS 3 Zrotation Yrotation Xrotation
			JOINT LeftKnee
			{
				OFFSET 2.53374 -6.96141 0.00000
				CHANNELS 3 Zrotation Yrotation Xrotation
				JOINT LeftAnkle
				{
					OFFSET 2.63509 -7.23986 0.00000
					CHANNELS 3 Zrotation Yrotation Xrotation
					JOINT LeftToe
					{
						OFFSET 0.14115 -0.38781 2.05350
						CHANNELS 3 Zrotation Yrotation Xrotation
						End Site
						{
							OFFSET 0.00000 -0.00000 1.05543
						}
					}
				}
			}
		}
	}
	JOINT RHipJoint
	{
		OFFSET 0 0 0
		CHANNELS 3 Zrotation Yrotation Xrotation
		JOINT RightHip
		{
			OFFSET -1.11138 -1.81893 0.78828
			CHANNELS 3 Zrotation Yrotation Xrotation
			JOINT RightKnee
			{
				OFFSET -2.58392 -7.09926 0.00000
				CHANNELS 3 Zrotation Yrotation Xrotation
				JOINT RightAnkle
				{
					OFFSET -2.66423 -7.31992 0.00000
					CHANNELS 3 Zrotation Yrotation Xrotation
					JOINT RightToe
					{
						OFFSET -0.18831 -0.51739 2.12114
						CHANNELS 3 Zrotation Yrotation Xrotation
						End Site
						{
							OFFSET -0.00000 -0.00000 1.09845
						}
					}
				}
			}
		}
	}
	JOINT lowerback
	{
		OFFSET 0 0 0
		CHANNELS 3 Zrotation Yrotation Xrotation
		JOINT Chest
		{
			OFFSET -0.01511 1.97958 -0.08829
			CHANNELS 3 Zrotation Yrotation Xrotation
			JOINT Chest2
			{
				OFFSET 0.08344 1.97334 -0.04330
				CHANNELS 3 Zrotation Yrotation Xrotation
				JOINT lowerneck
				{
					OFFSET 0 0 0
					CHANNELS 3 Zrotation Yrotation Xrotation
					JOINT Neck
					{
						OFFSET 0.00559 1.76246 0.31246
						CHANNELS 3 Zrotation Yrotation Xrotation
						JOINT Head
						{
							OFFSET -0.07011 1.80354 -0.30524
							CHANNELS 3 Zrotation Yrotation Xrotation
							End Site
							{
								OFFSET -0.02385 1.83547 -0.13906
							}
						}
					}
				}
				JOINT LeftCollar
				{
					OFFSET 0 0 0
					CHANNELS 3 Zrotation Yrotation Xrotation
					JOINT LeftShoulder
					{
						OFFSET 3.20667 1.30156 -0.60240
CHANNELS 3 Zrotation Xrotation Yrotation
						JOINT LeftElbow
						{
OFFSET 0 -4.956630 0.000000
CHANNELS 3 Zrotation Xrotation Yrotation
							JOINT LeftWrist
							{
OFFSET 0 -3.381770 0.000000
CHANNELS 3 Zrotation Xrotation Yrotation
								JOINT lhand
								{
									OFFSET 0 0 0
CHANNELS 3 Zrotation Xrotation Yrotation
									JOINT LFingers
									{
OFFSET 0 -0.662910 0.000000
CHANNELS 3 Zrotation Xrotation Yrotation
										End Site
										{
OFFSET 0 -0.534450 0.000000
										}
									}
								}
								JOINT LThumb
								{
OFFSET 0 0.000000 0.000000
CHANNELS 3 Zrotation Xrotation Yrotation
									End Site
									{
OFFSET 0 -0.542610 0.542610
									}
								}
							}
						}
					}
				}
				JOINT RightCollar
				{
					OFFSET 0 0 0
					CHANNELS 3 Zrotation Yrotation Xrotation
					JOINT RightShoulder
					{
						OFFSET -3.06877 1.34672 -0.60964
CHANNELS 3 Zrotation Xrotation Yrotation
						JOINT RightElbow
						{
OFFSET 0 -5.083650 0.000000
CHANNELS 3 Zrotation Xrotation Yrotation
							JOINT RightWrist
							{
OFFSET 0 -3.359840 0.000000
CHANNELS 3 Zrotation Xrotation Yrotation
								JOINT rhand
								{
									OFFSET 0 0 0
CHANNELS 3 Zrotation Xrotation Yrotation
									JOINT RFingers
									{
OFFSET 0 -0.820760 0.000000
CHANNELS 3 Zrotation Xrotation Yrotation
										End Site
										{
OFFSET 0 -0.661720 0.000000
										}
									}
								}
								JOINT RThumb
								{
OFFSET 0 0.000000 0.000000
CHANNELS 3 Zrotation Xrotation Yrotation
									End Site
									{
OFFSET 0 -0.671820 0.671820
									}
								}
							}
						}
					}
				}
			}
		}
	}
}
MOTION
Frames: 5
Frame Time: 0.008333333333333333
-8.165700 17.815800 0.146000 -130.881000 85.880100 -116.894000 0.000000 0.000000 0.000000 -6.110100 -3.910900 -28.925400 2.165300 9.202300 26.430200 0.192600 -5.672800 -8.196600 1.487100 -7.704200 -21.819200 0.000000 0.000000 0.000000 9.420800 8.539000 -24.800700 -1.990100 -8.845400 25.312900 -0.083000 -7.442400 -12.277000 -0.058900 1.566400 -4.308800 -1.448500 1.524900 3.807300 4.342500 2.098700 4.505400 5.274600 1.008300 2.300100 2.036400 -2.161200 -15.701700 -4.492300 -0.362400 38.723600 -2.261900 0.062800 16.549000 -0.000000 -0.000000 0.000000 -18.024700 -24.161200 -77.209000 13.306900 -21.735300 2.565800 -156.653900 -63.139600 59.866600 0.000000 0.000000 0.000000 -7.125000 0.000000 0.000000 160.945700 57.001600 5.745700 -0.000000 -0.000000 0.000000 11.580700 -28.956600 32.969400 -9.622900 -16.147500 -1.368200 -13.822600 -28.695900 8.550400 0.000000 0.000000 0.000000 7.125000 0.000000 -0.000000 11.241400 38.550300 1.812900
-8.165182 17.817871 0.145778 -130.699806 85.886830 -116.706890 0.000000 0.000000 0.000000 -6.077411 -3.983156 -28.891972 2.169959 9.211471 26.459043 0.192970 -5.654015 -8.199115 1.391474 -7.461327 -21.090358 0.000000 0.000000 0.000000 9.423462 8.534858 -24.783542 -1.982556 -8.829647 25.263793 -0.082186 -7.422358 -12.238173 -0.052762 1.481202 -4.073840 -1.453381 1.516321 3.792139 4.339616 2.086867 4.509098 5.275192 1.001940 2.313634 2.022718 -2.156689 -15.709170 -4.492078 -0.348866 38.742089 -2.257611 0.066794 16.561647 0.000000 0.000000 0.000000 -18.033353 -24.165120 -77.193765 13.292478 -21.714296 2.560475 -156.646209 -63.039537 59.858021 0.000000 0.000000 0.000000 -7.125000 0.000000 0.000000 160.949620 57.008922 5.747845 0.000000 0.000000 0.000000 11.621154 -28.976642 32.780959 -9.601305 -16.113480 -1.362210 -13.656050 -28.623127 8.529027 0.000000 0.000000 0.000000 7.125000 0.000000 0.000000 11.378146 38.516724 1.845219
-8.164665 17.819606 0.145796 -130.566526 85.906449 -116.584462 0.000000 0.000000 0.000000 -6.058857 -4.048080 -28.830035 2.173660 9.218821 26.482184 0.191567 -5.668721 -8.178535 1.263124 -7.118219 -20.068622 0.000000 0.000000 0.000000 9.420807 8.528034 -24.758191 -1.977409 -8.818877 25.230305 -0.081038 -7.424404 -12.219709 -0.054481 1.505102 -4.139727 -1.477140 1.512725 3.792789 4.336779 2.081550 4.518497 5.286085 0.998358 2.322952 2.020439 -2.154285 -15.713333 -4.508386 -0.336673 38.751523 -2.262616 0.069398 16.568352 0.000000 0.000000 0.000000 -18.056476 -24.166931 -77.185142 13.276284 -21.690705 2.554479 -156.655957 -62.928214 59.886191 0.000000 0.000000 0.000000 -7.125000 0.000000 0.000000 160.945011 56.983231 5.737340 0.000000 0.000000 0.000000 11.635496 -28.984083 32.650540 -9.598395 -16.108879 -1.361394 -13.512354 -28.566069 8.548619 0.000000 0.000000 0.000000 7.125000 0.000000 0.000000 11.503488 38.526126 1.863404
-8.164103 17.820394 0.145944 -130.530366 85.926009 -116.565209 0.000000 0.000000 0.000000 -6.055727 -4.080896 -28.778999 2.176906 9.225290 26.502577 0.189966 -5.708040 -8.160514 1.150862 -6.811322 -19.157688 0.000000 0.000000 0.000000 9.413248 8.521588 -24.728233 -1.973541 -8.810751 25.205067 -0.080909 -7.430298 -12.224341 -0.059028 1.567877 -4.312847 -1.507748 1.511007 3.797813 4.337074 2.078747 4.530646 5.304064 0.995828 2.332099 2.021866 -2.155237 -15.713469 -4.531864 -0.328862 38.752163 -2.271931 0.069541 16.569050 0.000000 0.000000 0.000000 -18.100673 -24.151719 -77.150698 13.260110 -21.667151 2.548491 -156.643606 -62.824746 59.909865 0.000000 0.000000 0.000000 -7.125000 0.000000 0.000000 160.955143 56.959455 5.723066 0.000000 0.000000 0.000000 11.616879 -28.973653 32.656701 -9.617672 -16.139229 -1.366737 -13.455154 -28.567088 8.595312 0.000000 0.000000 0.000000 7.125000 0.000000 0.000000 11.560938 38.569014 1.860718
-8.163438 17.819358 0.146092 -130.663487 85.928746 -116.707945 0.000000 0.000000 0.000000 -6.071036 -4.046728 -28.790832 2.180308 9.232020 26.523802 0.190187 -5.762620 -8.178486 1.119282 -6.720429 -18.889817 0.000000 0.000000 0.000000 9.400897 8.519517 -24.697911 -1.969621 -8.802467 25.179257 -0.083646 -7.416764 -12.257622 -0.060137 1.582003 -4.351896 -1.530231 1.507309 3.792784 4.344766 2.073496 4.541961 5.325585 0.992205 2.346299 2.017355 -2.161449 -15.708292 -4.551019 -0.329750 38.743584 -2.279474 0.065621 16.563134 0.000000 0.000000 0.000000 -18.176330 -24.098692 -77.046197 13.246280 -21.647035 2.543388 -156.556042 -62.754561 59.875253 0.000000 0.000000 0.000000 -7.125000 0.000000 0.000000 161.011424 56.982973 5.716188 0.000000 0.000000 0.000000 11.553573 -28.936970 32.913034 -9.665595 -16.214739 -1.380049 -13.574372 -28.686085 8.653515 0.000000 0.000000 0.000000 7.125000 0.000000 0.000000 11.471450 38.636019 1.826624
